%TF.GenerationSoftware,KiCad,Pcbnew,9.0.2*%
%TF.CreationDate,2025-08-10T19:13:57-04:00*%
%TF.ProjectId,bec_adapter,6265635f-6164-4617-9074-65722e6b6963,rev?*%
%TF.SameCoordinates,Original*%
%TF.FileFunction,Legend,Bot*%
%TF.FilePolarity,Positive*%
%FSLAX46Y46*%
G04 Gerber Fmt 4.6, Leading zero omitted, Abs format (unit mm)*
G04 Created by KiCad (PCBNEW 9.0.2) date 2025-08-10 19:13:57*
%MOMM*%
%LPD*%
G01*
G04 APERTURE LIST*
%ADD10C,0.100000*%
%ADD11R,1.700000X1.700000*%
%ADD12C,1.700000*%
G04 APERTURE END LIST*
D10*
X120481830Y-95253371D02*
X120577068Y-95205752D01*
X120577068Y-95205752D02*
X120719925Y-95205752D01*
X120719925Y-95205752D02*
X120862782Y-95253371D01*
X120862782Y-95253371D02*
X120958020Y-95348609D01*
X120958020Y-95348609D02*
X121005639Y-95443847D01*
X121005639Y-95443847D02*
X121053258Y-95634323D01*
X121053258Y-95634323D02*
X121053258Y-95777180D01*
X121053258Y-95777180D02*
X121005639Y-95967656D01*
X121005639Y-95967656D02*
X120958020Y-96062894D01*
X120958020Y-96062894D02*
X120862782Y-96158133D01*
X120862782Y-96158133D02*
X120719925Y-96205752D01*
X120719925Y-96205752D02*
X120624687Y-96205752D01*
X120624687Y-96205752D02*
X120481830Y-96158133D01*
X120481830Y-96158133D02*
X120434211Y-96110513D01*
X120434211Y-96110513D02*
X120434211Y-95777180D01*
X120434211Y-95777180D02*
X120624687Y-95777180D01*
X120005639Y-96205752D02*
X120005639Y-95205752D01*
X120005639Y-95205752D02*
X119434211Y-96205752D01*
X119434211Y-96205752D02*
X119434211Y-95205752D01*
X118958020Y-96205752D02*
X118958020Y-95205752D01*
X118958020Y-95205752D02*
X118719925Y-95205752D01*
X118719925Y-95205752D02*
X118577068Y-95253371D01*
X118577068Y-95253371D02*
X118481830Y-95348609D01*
X118481830Y-95348609D02*
X118434211Y-95443847D01*
X118434211Y-95443847D02*
X118386592Y-95634323D01*
X118386592Y-95634323D02*
X118386592Y-95777180D01*
X118386592Y-95777180D02*
X118434211Y-95967656D01*
X118434211Y-95967656D02*
X118481830Y-96062894D01*
X118481830Y-96062894D02*
X118577068Y-96158133D01*
X118577068Y-96158133D02*
X118719925Y-96205752D01*
X118719925Y-96205752D02*
X118958020Y-96205752D01*
X120481830Y-97836705D02*
X120577068Y-97789086D01*
X120577068Y-97789086D02*
X120719925Y-97789086D01*
X120719925Y-97789086D02*
X120862782Y-97836705D01*
X120862782Y-97836705D02*
X120958020Y-97931943D01*
X120958020Y-97931943D02*
X121005639Y-98027181D01*
X121005639Y-98027181D02*
X121053258Y-98217657D01*
X121053258Y-98217657D02*
X121053258Y-98360514D01*
X121053258Y-98360514D02*
X121005639Y-98550990D01*
X121005639Y-98550990D02*
X120958020Y-98646228D01*
X120958020Y-98646228D02*
X120862782Y-98741467D01*
X120862782Y-98741467D02*
X120719925Y-98789086D01*
X120719925Y-98789086D02*
X120624687Y-98789086D01*
X120624687Y-98789086D02*
X120481830Y-98741467D01*
X120481830Y-98741467D02*
X120434211Y-98693847D01*
X120434211Y-98693847D02*
X120434211Y-98360514D01*
X120434211Y-98360514D02*
X120624687Y-98360514D01*
X120005639Y-98789086D02*
X120005639Y-97789086D01*
X120005639Y-97789086D02*
X119434211Y-98789086D01*
X119434211Y-98789086D02*
X119434211Y-97789086D01*
X118958020Y-98789086D02*
X118958020Y-97789086D01*
X118958020Y-97789086D02*
X118719925Y-97789086D01*
X118719925Y-97789086D02*
X118577068Y-97836705D01*
X118577068Y-97836705D02*
X118481830Y-97931943D01*
X118481830Y-97931943D02*
X118434211Y-98027181D01*
X118434211Y-98027181D02*
X118386592Y-98217657D01*
X118386592Y-98217657D02*
X118386592Y-98360514D01*
X118386592Y-98360514D02*
X118434211Y-98550990D01*
X118434211Y-98550990D02*
X118481830Y-98646228D01*
X118481830Y-98646228D02*
X118577068Y-98741467D01*
X118577068Y-98741467D02*
X118719925Y-98789086D01*
X118719925Y-98789086D02*
X118958020Y-98789086D01*
X124767544Y-100372419D02*
X124958020Y-100372419D01*
X124958020Y-100372419D02*
X125053258Y-100420038D01*
X125053258Y-100420038D02*
X125100877Y-100467657D01*
X125100877Y-100467657D02*
X125196115Y-100610514D01*
X125196115Y-100610514D02*
X125243734Y-100800990D01*
X125243734Y-100800990D02*
X125243734Y-101181942D01*
X125243734Y-101181942D02*
X125196115Y-101277180D01*
X125196115Y-101277180D02*
X125148496Y-101324800D01*
X125148496Y-101324800D02*
X125053258Y-101372419D01*
X125053258Y-101372419D02*
X124862782Y-101372419D01*
X124862782Y-101372419D02*
X124767544Y-101324800D01*
X124767544Y-101324800D02*
X124719925Y-101277180D01*
X124719925Y-101277180D02*
X124672306Y-101181942D01*
X124672306Y-101181942D02*
X124672306Y-100943847D01*
X124672306Y-100943847D02*
X124719925Y-100848609D01*
X124719925Y-100848609D02*
X124767544Y-100800990D01*
X124767544Y-100800990D02*
X124862782Y-100753371D01*
X124862782Y-100753371D02*
X125053258Y-100753371D01*
X125053258Y-100753371D02*
X125148496Y-100800990D01*
X125148496Y-100800990D02*
X125196115Y-100848609D01*
X125196115Y-100848609D02*
X125243734Y-100943847D01*
X124243734Y-100991466D02*
X123481830Y-100991466D01*
X123100877Y-100372419D02*
X122481830Y-100372419D01*
X122481830Y-100372419D02*
X122815163Y-100753371D01*
X122815163Y-100753371D02*
X122672306Y-100753371D01*
X122672306Y-100753371D02*
X122577068Y-100800990D01*
X122577068Y-100800990D02*
X122529449Y-100848609D01*
X122529449Y-100848609D02*
X122481830Y-100943847D01*
X122481830Y-100943847D02*
X122481830Y-101181942D01*
X122481830Y-101181942D02*
X122529449Y-101277180D01*
X122529449Y-101277180D02*
X122577068Y-101324800D01*
X122577068Y-101324800D02*
X122672306Y-101372419D01*
X122672306Y-101372419D02*
X122958020Y-101372419D01*
X122958020Y-101372419D02*
X123053258Y-101324800D01*
X123053258Y-101324800D02*
X123100877Y-101277180D01*
X121862782Y-100372419D02*
X121767544Y-100372419D01*
X121767544Y-100372419D02*
X121672306Y-100420038D01*
X121672306Y-100420038D02*
X121624687Y-100467657D01*
X121624687Y-100467657D02*
X121577068Y-100562895D01*
X121577068Y-100562895D02*
X121529449Y-100753371D01*
X121529449Y-100753371D02*
X121529449Y-100991466D01*
X121529449Y-100991466D02*
X121577068Y-101181942D01*
X121577068Y-101181942D02*
X121624687Y-101277180D01*
X121624687Y-101277180D02*
X121672306Y-101324800D01*
X121672306Y-101324800D02*
X121767544Y-101372419D01*
X121767544Y-101372419D02*
X121862782Y-101372419D01*
X121862782Y-101372419D02*
X121958020Y-101324800D01*
X121958020Y-101324800D02*
X122005639Y-101277180D01*
X122005639Y-101277180D02*
X122053258Y-101181942D01*
X122053258Y-101181942D02*
X122100877Y-100991466D01*
X122100877Y-100991466D02*
X122100877Y-100753371D01*
X122100877Y-100753371D02*
X122053258Y-100562895D01*
X122053258Y-100562895D02*
X122005639Y-100467657D01*
X122005639Y-100467657D02*
X121958020Y-100420038D01*
X121958020Y-100420038D02*
X121862782Y-100372419D01*
X121243734Y-100372419D02*
X120910401Y-101372419D01*
X120910401Y-101372419D02*
X120577068Y-100372419D01*
X119481829Y-101372419D02*
X119481829Y-100372419D01*
X119005639Y-101372419D02*
X119005639Y-100372419D01*
X119005639Y-100372419D02*
X118434211Y-101372419D01*
X118434211Y-101372419D02*
X118434211Y-100372419D01*
X125767545Y-92622419D02*
X126243735Y-92622419D01*
X126243735Y-92622419D02*
X126291354Y-93098609D01*
X126291354Y-93098609D02*
X126243735Y-93050990D01*
X126243735Y-93050990D02*
X126148497Y-93003371D01*
X126148497Y-93003371D02*
X125910402Y-93003371D01*
X125910402Y-93003371D02*
X125815164Y-93050990D01*
X125815164Y-93050990D02*
X125767545Y-93098609D01*
X125767545Y-93098609D02*
X125719926Y-93193847D01*
X125719926Y-93193847D02*
X125719926Y-93431942D01*
X125719926Y-93431942D02*
X125767545Y-93527180D01*
X125767545Y-93527180D02*
X125815164Y-93574800D01*
X125815164Y-93574800D02*
X125910402Y-93622419D01*
X125910402Y-93622419D02*
X126148497Y-93622419D01*
X126148497Y-93622419D02*
X126243735Y-93574800D01*
X126243735Y-93574800D02*
X126291354Y-93527180D01*
X125434211Y-92622419D02*
X125100878Y-93622419D01*
X125100878Y-93622419D02*
X124767545Y-92622419D01*
X123719926Y-92574800D02*
X124577068Y-93860514D01*
X123338973Y-93622419D02*
X123148497Y-93622419D01*
X123148497Y-93622419D02*
X123053259Y-93574800D01*
X123053259Y-93574800D02*
X123005640Y-93527180D01*
X123005640Y-93527180D02*
X122910402Y-93384323D01*
X122910402Y-93384323D02*
X122862783Y-93193847D01*
X122862783Y-93193847D02*
X122862783Y-92812895D01*
X122862783Y-92812895D02*
X122910402Y-92717657D01*
X122910402Y-92717657D02*
X122958021Y-92670038D01*
X122958021Y-92670038D02*
X123053259Y-92622419D01*
X123053259Y-92622419D02*
X123243735Y-92622419D01*
X123243735Y-92622419D02*
X123338973Y-92670038D01*
X123338973Y-92670038D02*
X123386592Y-92717657D01*
X123386592Y-92717657D02*
X123434211Y-92812895D01*
X123434211Y-92812895D02*
X123434211Y-93050990D01*
X123434211Y-93050990D02*
X123386592Y-93146228D01*
X123386592Y-93146228D02*
X123338973Y-93193847D01*
X123338973Y-93193847D02*
X123243735Y-93241466D01*
X123243735Y-93241466D02*
X123053259Y-93241466D01*
X123053259Y-93241466D02*
X122958021Y-93193847D01*
X122958021Y-93193847D02*
X122910402Y-93146228D01*
X122910402Y-93146228D02*
X122862783Y-93050990D01*
X122577068Y-92622419D02*
X122243735Y-93622419D01*
X122243735Y-93622419D02*
X121910402Y-92622419D01*
X120624687Y-92622419D02*
X120434211Y-92622419D01*
X120434211Y-92622419D02*
X120338973Y-92670038D01*
X120338973Y-92670038D02*
X120243735Y-92765276D01*
X120243735Y-92765276D02*
X120196116Y-92955752D01*
X120196116Y-92955752D02*
X120196116Y-93289085D01*
X120196116Y-93289085D02*
X120243735Y-93479561D01*
X120243735Y-93479561D02*
X120338973Y-93574800D01*
X120338973Y-93574800D02*
X120434211Y-93622419D01*
X120434211Y-93622419D02*
X120624687Y-93622419D01*
X120624687Y-93622419D02*
X120719925Y-93574800D01*
X120719925Y-93574800D02*
X120815163Y-93479561D01*
X120815163Y-93479561D02*
X120862782Y-93289085D01*
X120862782Y-93289085D02*
X120862782Y-92955752D01*
X120862782Y-92955752D02*
X120815163Y-92765276D01*
X120815163Y-92765276D02*
X120719925Y-92670038D01*
X120719925Y-92670038D02*
X120624687Y-92622419D01*
X119767544Y-92622419D02*
X119767544Y-93431942D01*
X119767544Y-93431942D02*
X119719925Y-93527180D01*
X119719925Y-93527180D02*
X119672306Y-93574800D01*
X119672306Y-93574800D02*
X119577068Y-93622419D01*
X119577068Y-93622419D02*
X119386592Y-93622419D01*
X119386592Y-93622419D02*
X119291354Y-93574800D01*
X119291354Y-93574800D02*
X119243735Y-93527180D01*
X119243735Y-93527180D02*
X119196116Y-93431942D01*
X119196116Y-93431942D02*
X119196116Y-92622419D01*
X118862782Y-92622419D02*
X118291354Y-92622419D01*
X118577068Y-93622419D02*
X118577068Y-92622419D01*
%LPC*%
D11*
%TO.C,J1*%
X116289000Y-93165000D03*
D12*
X116289000Y-95705000D03*
X116289000Y-98245000D03*
X116289000Y-100785000D03*
%TD*%
%LPD*%
M02*
