%TF.GenerationSoftware,KiCad,Pcbnew,9.0.2*%
%TF.CreationDate,2025-08-10T19:13:57-04:00*%
%TF.ProjectId,bec_adapter,6265635f-6164-4617-9074-65722e6b6963,rev?*%
%TF.SameCoordinates,Original*%
%TF.FileFunction,Legend,Top*%
%TF.FilePolarity,Positive*%
%FSLAX46Y46*%
G04 Gerber Fmt 4.6, Leading zero omitted, Abs format (unit mm)*
G04 Created by KiCad (PCBNEW 9.0.2) date 2025-08-10 19:13:57*
%MOMM*%
%LPD*%
G01*
G04 APERTURE LIST*
G04 Aperture macros list*
%AMRoundRect*
0 Rectangle with rounded corners*
0 $1 Rounding radius*
0 $2 $3 $4 $5 $6 $7 $8 $9 X,Y pos of 4 corners*
0 Add a 4 corners polygon primitive as box body*
4,1,4,$2,$3,$4,$5,$6,$7,$8,$9,$2,$3,0*
0 Add four circle primitives for the rounded corners*
1,1,$1+$1,$2,$3*
1,1,$1+$1,$4,$5*
1,1,$1+$1,$6,$7*
1,1,$1+$1,$8,$9*
0 Add four rect primitives between the rounded corners*
20,1,$1+$1,$2,$3,$4,$5,0*
20,1,$1+$1,$4,$5,$6,$7,0*
20,1,$1+$1,$6,$7,$8,$9,0*
20,1,$1+$1,$8,$9,$2,$3,0*%
G04 Aperture macros list end*
%ADD10C,0.150000*%
%ADD11C,0.100000*%
%ADD12C,0.120000*%
%ADD13R,1.700000X1.700000*%
%ADD14C,1.700000*%
%ADD15RoundRect,0.270000X-1.000000X-0.630000X1.000000X-0.630000X1.000000X0.630000X-1.000000X0.630000X0*%
G04 APERTURE END LIST*
D10*
X117166666Y-91054819D02*
X117166666Y-91769104D01*
X117166666Y-91769104D02*
X117119047Y-91911961D01*
X117119047Y-91911961D02*
X117023809Y-92007200D01*
X117023809Y-92007200D02*
X116880952Y-92054819D01*
X116880952Y-92054819D02*
X116785714Y-92054819D01*
X118166666Y-92054819D02*
X117595238Y-92054819D01*
X117880952Y-92054819D02*
X117880952Y-91054819D01*
X117880952Y-91054819D02*
X117785714Y-91197676D01*
X117785714Y-91197676D02*
X117690476Y-91292914D01*
X117690476Y-91292914D02*
X117595238Y-91340533D01*
D11*
X125738095Y-100557419D02*
X125738095Y-101366942D01*
X125738095Y-101366942D02*
X125785714Y-101462180D01*
X125785714Y-101462180D02*
X125833333Y-101509800D01*
X125833333Y-101509800D02*
X125928571Y-101557419D01*
X125928571Y-101557419D02*
X126119047Y-101557419D01*
X126119047Y-101557419D02*
X126214285Y-101509800D01*
X126214285Y-101509800D02*
X126261904Y-101462180D01*
X126261904Y-101462180D02*
X126309523Y-101366942D01*
X126309523Y-101366942D02*
X126309523Y-100557419D01*
X127309523Y-101557419D02*
X126738095Y-101557419D01*
X127023809Y-101557419D02*
X127023809Y-100557419D01*
X127023809Y-100557419D02*
X126928571Y-100700276D01*
X126928571Y-100700276D02*
X126833333Y-100795514D01*
X126833333Y-100795514D02*
X126738095Y-100843133D01*
D12*
%TO.C,J1*%
X114909000Y-91785000D02*
X116289000Y-91785000D01*
X114909000Y-93165000D02*
X114909000Y-91785000D01*
X114909000Y-94435000D02*
X114909000Y-102165000D01*
X114909000Y-94435000D02*
X117669000Y-94435000D01*
X114909000Y-102165000D02*
X117669000Y-102165000D01*
X117669000Y-94435000D02*
X117669000Y-102165000D01*
%TO.C,U1*%
D11*
X118884000Y-91930000D02*
X133616000Y-91930000D01*
X133616000Y-102090000D01*
X118884000Y-102090000D01*
X118884000Y-91930000D01*
X124123000Y-92470000D02*
X128123000Y-92470000D01*
X128123000Y-96470000D01*
X124123000Y-96470000D01*
X124123000Y-92470000D01*
%TD*%
%LPC*%
D13*
%TO.C,J1*%
X116289000Y-93165000D03*
D14*
X116289000Y-95705000D03*
X116289000Y-98245000D03*
X116289000Y-100785000D03*
%TD*%
D15*
%TO.C,U1*%
X120662000Y-93200000D03*
X120662000Y-95740000D03*
X120662000Y-98280000D03*
X120662000Y-100820000D03*
%TD*%
%LPD*%
M02*
